<svg width="50" height="25" viewBox="0 0 50 25" fill="none" xmlns="http://www.w3.org/2000/svg">
<path fill-rule="evenodd" clip-rule="evenodd" d="M1.89126 0H44.7038C45.3976 0 45.9644 0.567215 45.9644 1.26138V5.80683C45.9644 5.87248 46.0253 5.92199 46.0909 5.92199V5.92199H49.3697C49.7168 5.92199 50 6.20437 50 6.55146V17.9027C50 18.2485 49.7168 18.533 49.3697 18.533H46.0909V18.533C46.0248 18.533 45.9644 18.5816 45.9644 18.6477V23.7099C45.9644 24.4037 45.3976 24.9713 44.7038 24.9713H1.26057C0.567622 24.9709 0 24.4037 0 23.7099V1.89126C0 0.850416 0.850823 0 1.89126 0ZM4.32003 5.44723C4.32003 4.34267 5.21546 3.44724 6.32003 3.44724H39.6444C40.7489 3.44724 41.6444 4.34267 41.6444 5.44724V19.5237C41.6444 20.6282 40.7489 21.5237 39.6444 21.5237H6.32003C5.21546 21.5237 4.32003 20.6282 4.32003 19.5237V5.44723Z" fill="white"/>
<path fill-rule="evenodd" clip-rule="evenodd" d="M6.91833 8.10351C6.91833 6.99894 7.81377 6.10352 8.91833 6.10352H19.1253H25.2287H29.3322C30.4368 6.10352 31.3322 6.99895 31.3322 8.10352V17.1243C31.3322 18.2288 30.4368 19.1243 29.3322 19.1243H25.2287H19.1253H8.91833C7.81376 19.1243 6.91833 18.2288 6.91833 17.1243V8.10351Z" fill="white"/>
</svg>
