<svg width="49" height="48" viewBox="0 0 49 48" fill="none" xmlns="http://www.w3.org/2000/svg">
<path d="M16.3945 38.1172C16.3945 37.9219 16.1992 37.7266 15.9062 37.7266C15.6133 37.7266 15.418 37.9219 15.418 38.1172C15.418 38.3125 15.6133 38.5078 15.9062 38.4102C16.1992 38.4102 16.3945 38.3125 16.3945 38.1172ZM13.3672 37.6289C13.3672 37.8242 13.5625 38.1172 13.8555 38.1172C14.0508 38.2148 14.3438 38.1172 14.4414 37.9219C14.4414 37.7266 14.3438 37.5312 14.0508 37.4336C13.7578 37.3359 13.4648 37.4336 13.3672 37.6289ZM17.7617 37.5312C17.4688 37.5312 17.2734 37.7266 17.2734 38.0195C17.2734 38.2148 17.5664 38.3125 17.8594 38.2148C18.1523 38.1172 18.3477 38.0195 18.25 37.8242C18.25 37.6289 17.957 37.4336 17.7617 37.5312ZM24.1094 0.03125C10.6328 0.03125 0.28125 10.3828 0.28125 23.8594C0.28125 34.6992 7.01953 43.9766 16.7852 47.2969C18.0547 47.4922 18.4453 46.7109 18.4453 46.125C18.4453 45.4414 18.4453 42.1211 18.4453 40.0703C18.4453 40.0703 11.6094 41.5352 10.1445 37.1406C10.1445 37.1406 9.07031 34.3086 7.50781 33.625C7.50781 33.625 5.26172 32.0625 7.60547 32.0625C7.60547 32.0625 10.0469 32.2578 11.4141 34.6016C13.5625 38.4102 17.0781 37.3359 18.543 36.6523C18.7383 35.0898 19.3242 34.0156 20.1055 33.332C14.6367 32.7461 9.07031 31.9648 9.07031 22.5898C9.07031 19.8555 9.85156 18.5859 11.4141 16.8281C11.1211 16.1445 10.3398 13.6055 11.707 10.1875C13.6602 9.60156 18.4453 12.8242 18.4453 12.8242C20.3984 12.2383 22.4492 12.043 24.5 12.043C26.6484 12.043 28.6992 12.2383 30.6523 12.8242C30.6523 12.8242 35.3398 9.50391 37.3906 10.1875C38.7578 13.6055 37.8789 16.1445 37.6836 16.8281C39.2461 18.5859 40.2227 19.8555 40.2227 22.5898C40.2227 31.9648 34.4609 32.7461 28.9922 33.332C29.8711 34.1133 30.6523 35.5781 30.6523 37.9219C30.6523 41.1445 30.5547 45.2461 30.5547 46.0273C30.5547 46.7109 31.043 47.4922 32.3125 47.1992C42.0781 43.9766 48.7188 34.6992 48.7188 23.8594C48.7188 10.3828 37.6836 0.03125 24.1094 0.03125ZM9.75391 33.7227C9.55859 33.8203 9.65625 34.1133 9.75391 34.3086C9.94922 34.4062 10.1445 34.5039 10.3398 34.4062C10.4375 34.3086 10.4375 34.0156 10.2422 33.8203C10.0469 33.7227 9.85156 33.625 9.75391 33.7227ZM8.67969 32.9414C8.58203 33.1367 8.67969 33.2344 8.875 33.332C9.07031 33.4297 9.26562 33.4297 9.36328 33.2344C9.36328 33.1367 9.26562 33.0391 9.07031 32.9414C8.875 32.8438 8.77734 32.8438 8.67969 32.9414ZM11.8047 36.457C11.707 36.5547 11.707 36.8477 12 37.043C12.1953 37.2383 12.4883 37.3359 12.5859 37.1406C12.6836 37.043 12.6836 36.75 12.4883 36.5547C12.293 36.3594 12 36.2617 11.8047 36.457ZM10.7305 34.9922C10.5352 35.0898 10.5352 35.3828 10.7305 35.5781C10.9258 35.7734 11.1211 35.8711 11.3164 35.7734C11.4141 35.6758 11.4141 35.3828 11.3164 35.1875C11.1211 34.9922 10.9258 34.8945 10.7305 34.9922Z" fill="url(#paint0_linear)"/>
<defs>
<linearGradient id="paint0_linear" x1="8.5" y1="2" x2="46" y2="43" gradientUnits="userSpaceOnUse">
<stop stop-color="#9754EF"/>
<stop offset="0.794594" stop-color="#5814EB"/>
</linearGradient>
</defs>
</svg>
