<svg width="31" height="32" viewBox="0 0 31 32" fill="none" xmlns="http://www.w3.org/2000/svg">
<path d="M0.1875 0.5625V31.1875H30.8125V0.5625H0.1875ZM16.7988 24.4883C16.7988 27.4277 15.0898 28.7949 12.4922 28.7949C10.2363 28.7949 8.86914 27.6328 8.18555 26.1973L10.5781 24.7617C10.9883 25.582 11.3984 26.2656 12.4238 26.2656C13.3125 26.2656 13.9277 25.8555 13.9277 24.4199V14.6445H16.7988V24.4883ZM23.6348 28.7949C20.9688 28.7949 19.2598 27.5645 18.3711 25.8555L20.7637 24.5566C21.3789 25.5137 22.1309 26.2656 23.5664 26.2656C24.7285 26.2656 25.5488 25.6504 25.5488 24.8301C25.5488 23.873 24.7285 23.5312 23.4297 22.916L22.6777 22.6426C20.627 21.7539 19.2598 20.6602 19.2598 18.2676C19.2598 16.1484 20.9004 14.5078 23.498 14.5078C25.2754 14.5078 26.6426 15.123 27.5312 16.7637L25.3438 18.1992C24.7969 17.3789 24.3184 16.9688 23.4297 16.9688C22.6094 16.9688 22.0625 17.5156 22.0625 18.1992C22.0625 19.0879 22.6094 19.4297 23.8398 19.9766L24.5918 20.3184C27.0527 21.3438 28.4199 22.4375 28.4199 24.8301C28.4199 27.4277 26.3691 28.7949 23.6348 28.7949Z" fill="#FFE226"/>
</svg>
