<svg width="1795" height="1783" viewBox="0 0 1795 1783" fill="none" xmlns="http://www.w3.org/2000/svg">
<g clip-path="url(#clip0)">
<path d="M1380.2 451.5V411.5C1380.2 302.9 1328.5 200.9 1241 136.6C1285.5 195.6 1309.5 267.5 1309.4 341.4V451.5H1238.4V341.4C1238.5 152.9 1085.6 0 897.1 0C708.6 0 555.6 152.9 555.6 341.4V451.5H0V1652.2C0 1724 58.2 1782.3 130.1 1782.3H1664.1C1735.9 1782.3 1794.2 1724.1 1794.2 1652.2V451.5H1380.2ZM626.4 341.4C626.3 192 747.4 70.8 896.9 70.8H897.1C1045.2 74 1164.5 193.3 1167.8 341.5V451.6H768.1V411.6C768 262.2 889.1 141 1038.6 140.9H1038.8C1051.3 140.9 1063.7 141.8 1076 143.7C1042.1 128.1 1005.3 120 968 119.9C880.5 119.8 798.3 162.2 747.6 233.5C714.7 287.1 697.3 348.7 697.4 411.5V451.5H626.4V341.4Z" fill="#111111"/>
<path d="M838.1 740.5H550.9C534.331 740.5 520.9 753.931 520.9 770.5V1057.8C520.9 1074.37 534.331 1087.8 550.9 1087.8H838.1C854.669 1087.8 868.1 1074.37 868.1 1057.8V770.5C868.1 753.931 854.669 740.5 838.1 740.5Z" fill="#F25022"/>
<path d="M1243.2 740.5H956C939.431 740.5 926 753.931 926 770.5V1057.8C926 1074.37 939.431 1087.8 956 1087.8H1243.2C1259.77 1087.8 1273.2 1074.37 1273.2 1057.8V770.5C1273.2 753.931 1259.77 740.5 1243.2 740.5Z" fill="#7FBA00"/>
<path d="M838.1 1145.6H550.9C534.331 1145.6 520.9 1159.03 520.9 1175.6V1462.8C520.9 1479.37 534.331 1492.8 550.9 1492.8H838.1C854.669 1492.8 868.1 1479.37 868.1 1462.8V1175.6C868.1 1159.03 854.669 1145.6 838.1 1145.6Z" fill="#00A4EF"/>
<path d="M1243.2 1145.6H956C939.431 1145.6 926 1159.03 926 1175.6V1462.8C926 1479.37 939.431 1492.8 956 1492.8H1243.2C1259.77 1492.8 1273.2 1479.37 1273.2 1462.8V1175.6C1273.2 1159.03 1259.77 1145.6 1243.2 1145.6Z" fill="#FFB900"/>
</g>
<defs>
<clipPath id="clip0">
<rect width="1794.1" height="1782.3" fill="white"/>
</clipPath>
</defs>
</svg>
