<svg width="395" height="406" viewBox="0 0 395 406" fill="none" xmlns="http://www.w3.org/2000/svg">
<g id="Group 40">
<circle id="Ellipse 2" cx="230" cy="165.004" r="119" fill="#DCDCDC" fill-opacity="0.2"/>
<path id="look" d="M395.001 164.763L395.001 164.816L394.978 164.816C394.965 210.296 376.51 251.479 346.691 281.28C316.914 311.033 275.752 329.464 230.29 329.493L230.29 329.516L230.181 329.516L230.049 329.516L230.049 329.493C211.727 329.477 194.093 326.471 177.65 320.944C174.891 320.018 172.24 319.049 169.707 318.053L169.684 318.053C157.617 313.287 146.208 307.127 135.7 299.771L49.5151 395.623L49.4624 395.682L48.981 396.2L48.9447 396.236C43.7912 401.648 36.8902 404.594 29.887 404.967C22.9629 405.329 15.8805 403.177 10.1995 398.444L10.1467 398.408L9.47737 397.831L9.36198 397.716L8.83442 397.235L8.76519 397.182C3.35121 392.024 0.410106 385.138 0.0408217 378.131C-0.325166 371.22 1.82132 364.134 6.56267 358.451L6.59895 358.402L7.17594 357.73L7.25508 357.634L95.4021 259.597C93.3578 256.696 91.4158 253.736 89.5826 250.74C87.0932 246.676 84.7489 242.468 82.609 238.173C71.5898 216.094 65.3911 191.143 65.3911 164.766L65.368 164.766L65.368 164.713L65.3911 164.713C65.4043 119.233 83.8586 78.0436 113.678 48.2418C143.455 18.4795 184.624 0.058585 230.072 0.0289237L230.072 0.00585217L230.181 0.00585217L230.234 0.00585217L230.234 0.0289237C275.732 0.0421094 316.937 18.4894 346.75 48.2978C376.51 78.0634 394.948 119.21 394.978 164.654L395.001 164.654L395.001 164.763ZM358.04 164.816L358.016 164.816L358.016 164.763L358.016 164.654L358.04 164.654C358.016 129.434 343.697 97.5093 320.587 74.3983C297.477 51.2905 265.507 36.9631 230.231 36.9532L230.231 36.9763L230.178 36.9763L230.069 36.9763L230.069 36.9532C194.835 36.9763 162.915 51.2806 139.789 74.3917C116.669 97.4928 102.336 129.45 102.329 164.71L102.353 164.71L102.353 164.763L102.353 164.872L102.329 164.872C102.353 200.092 116.666 232.003 139.782 255.121C162.892 278.228 194.852 292.556 230.125 292.562L230.125 292.543L230.178 292.543L230.287 292.543L230.287 292.562C265.52 292.543 297.457 278.225 320.577 255.127C343.697 232.026 358.03 200.079 358.04 164.816Z" fill="#D2D2D2"/>
</g>
</svg>
