<svg width="123" height="123" viewBox="0 0 123 123" fill="none" xmlns="http://www.w3.org/2000/svg">
<g id="Group">
<path id="Ellipse 4" d="M90 61.5C90 77.2401 77.2401 90 61.5 90C45.7599 90 33 77.2401 33 61.5C33 45.7599 45.7599 33 61.5 33C77.2401 33 90 45.7599 90 61.5Z" fill="#D7D7D7"/>
<path id="gear" fill-rule="evenodd" clip-rule="evenodd" d="M101.589 14.7L110.407 23.519C112.728 25.84 112.728 29.637 110.407 31.958L106.455 35.9098C104.585 37.7798 104.197 40.6397 105.221 43.0779C105.653 44.1051 106.049 45.1506 106.409 46.213C107.307 48.8625 109.694 50.811 112.492 50.811H116.91C120.193 50.811 122.879 53.497 122.879 56.779V69.25C122.879 72.533 120.193 75.219 116.91 75.219H111.322C108.679 75.219 106.383 76.9656 105.381 79.412C104.957 80.448 104.497 81.4658 104.003 82.4637C102.761 84.9723 103.071 88.0407 105.051 90.0197L108.179 93.147C110.5 95.47 110.5 99.267 108.179 101.587L99.361 110.406C97.04 112.726 93.242 112.726 90.922 110.406L86.9703 106.454C85.0997 104.584 82.2389 104.196 79.8001 105.221C78.7735 105.652 77.7285 106.049 76.6665 106.408C74.0164 107.306 72.067 109.694 72.067 112.492V116.909C72.067 120.191 69.382 122.877 66.099 122.877H53.629C50.346 122.877 47.66 120.191 47.66 116.909V111.32C47.66 108.677 45.9141 106.382 43.4682 105.38C42.4321 104.955 41.4143 104.495 40.4163 104.001C37.9077 102.759 34.8391 103.069 32.8599 105.049L29.732 108.177C27.409 110.498 23.612 110.498 21.291 108.177L12.473 99.359C10.152 97.038 10.152 93.241 12.473 90.92L16.4247 86.9683C18.2953 85.0977 18.683 82.2369 17.6581 79.7982C17.2271 78.7724 16.8311 77.7284 16.4716 76.6675C15.5736 74.0169 13.1854 72.067 10.3869 72.067H5.968C2.686 72.067 0 69.382 0 66.099V53.628C0 50.345 2.686 47.66 5.968 47.66H11.5566C14.1997 47.66 16.4955 45.9141 17.4972 43.4682C17.9218 42.4314 18.382 41.413 18.8763 40.4144C20.1179 37.9063 19.8075 34.8388 17.8285 32.86L14.7 29.732C12.379 27.41 12.379 23.612 14.7 21.292L23.519 12.473C25.84 10.152 29.637 10.152 31.958 12.473L35.9091 16.4241C37.7795 18.2945 40.6399 18.6823 43.0785 17.6576C44.1053 17.2261 45.1504 16.8296 46.2125 16.4698C48.8626 15.5719 50.812 13.1839 50.812 10.3858V5.969C50.812 2.686 53.498 0 56.78 0H69.251C72.533 0 75.219 2.686 75.219 5.969V11.5532C75.219 14.197 76.9658 16.4931 79.4124 17.4947C80.4499 17.9195 81.4691 18.3799 82.4684 18.8745C84.9766 20.1159 88.0442 19.8054 90.0228 17.8262L93.148 14.7C95.471 12.379 99.268 12.379 101.589 14.7ZM61.44 36.92C74.98 36.92 85.959 47.9 85.959 61.439C85.959 74.977 74.98 85.958 61.44 85.958C47.901 85.958 36.921 74.978 36.921 61.439C36.921 47.9 47.901 36.92 61.44 36.92Z" fill="#677178"/>
<path id="Ellipse 3" d="M80 61.5C80 71.7173 71.7173 80 61.5 80C51.2827 80 43 71.7173 43 61.5C43 51.2827 51.2827 43 61.5 43C71.7173 43 80 51.2827 80 61.5Z" fill="#105FA8"/>
</g>
</svg>
