<svg width="100" height="80" viewBox="0 0 100 80" fill="none" xmlns="http://www.w3.org/2000/svg">
<path d="M0 75.2195V17.0155H39.8379L48.5145 8.40649H95.4423C97.9743 8.40649 100 10.4322 100 12.9642V75.2195C100 77.7515 97.9743 79.7772 95.4423 79.7772H4.59149C2.02566 79.7772 0 77.7515 0 75.2195Z" fill="#FEDD69"/>
<path d="M39.8717 17.1168H0V4.55773C0 2.02566 2.02566 0 4.55773 0H38.9264C42.3363 1.48548 45.6448 4.35517 48.8184 8.50776L48.9534 8.71033L39.8717 17.1168Z" fill="#C8AE53"/>
<path d="M74.4188 48.2782H25.8171C20.5034 48.2782 16.2051 51.4354 16.2051 55.3383V79.6759H33.5H66.0929H84.0646V55.3383C84.0308 51.4354 79.7324 48.2782 74.4188 48.2782Z" fill="#49ADFC"/>
</svg>
