<?xml-stylesheet type="text/css" href="./svg_CSS/logo.css"?>

<svg width="101" height="101" viewBox="0 0 101 101" fill="none" xmlns="http://www.w3.org/2000/svg">
<g id="win_logo">
<path id="w-l-one" d="M0.0908203 5.09081C0.0908203 2.32939 2.3294 0.0908203 5.09082 0.0908203H43.3996C46.161 0.0908203 48.3996 2.32939 48.3996 5.09082V43.3996C48.3996 46.161 46.161 48.3996 43.3996 48.3996H5.09082C2.32939 48.3996 0.0908203 46.161 0.0908203 43.3996V5.09081Z" fill="#168CE9"/>
<path id="w-l-two" d="M56.7822 48.3992C54.0208 48.3992 51.7822 46.1606 51.7822 43.3992V5.09033C51.7822 2.32891 54.0208 0.090332 56.7822 0.090332H95.091C97.8525 0.090332 100.091 2.32891 100.091 5.09034V43.3992C100.091 46.1606 97.8524 48.3992 95.091 48.3992H56.7822Z" fill="#168CE9"/>
<path id="w-l-three" d="M0.0908203 56.7817C0.0908203 54.0203 2.3294 51.7817 5.09082 51.7817H43.3996C46.161 51.7817 48.3996 54.0203 48.3996 56.7817V95.0905C48.3996 97.852 46.161 100.091 43.3996 100.091H5.09082C2.32939 100.091 0.0908203 97.852 0.0908203 95.0905V56.7817Z" fill="#168CE9"/>
<path id="w-l-four" d="M56.7822 100.091C54.0208 100.091 51.7822 97.8519 51.7822 95.0905V56.7817C51.7822 54.0203 54.0208 51.7817 56.7822 51.7817H95.091C97.8525 51.7817 100.091 54.0203 100.091 56.7817V95.0905C100.091 97.8519 97.8524 100.091 95.091 100.091H56.7822Z" fill="#168CE9"/>
</g>
</svg>
